<svg width="18" height="16" viewBox="0 0 18 16" fill="none" xmlns="http://www.w3.org/2000/svg">
<path d="M17.625 0H0.375011C0.168011 0 0 0.448017 0 1C0 1.55198 0.168011 2 0.375011 2H17.625C17.832 2 18 1.55198 18 1C18 0.448017 17.832 0 17.625 0Z" fill="white"/>
<path d="M17.625 7H0.375011C0.168011 7 0 7.44802 0 8C0 8.55198 0.168011 9 0.375011 9H17.625C17.832 9 18 8.55198 18 8C18 7.44802 17.832 7 17.625 7Z" fill="white"/>
<path d="M17.625 14H0.375011C0.168011 14 0 14.4479 0 15C0 15.552 0.168011 16 0.375011 16H17.625C17.832 16 18 15.552 18 15C18 14.4479 17.832 14 17.625 14Z" fill="white"/>
</svg>
