<svg width="22" height="21" viewBox="0 0 22 21" fill="none" xmlns="http://www.w3.org/2000/svg">
<path d="M5.13953 4.81634H5.44046C5.89779 4.81634 6.2685 4.4455 6.2685 3.98829V1.70324V0.848513C6.2685 0.39131 5.89779 0.0205078 5.44046 0.0205078H5.13953C4.68224 0.0205078 4.31152 0.39131 4.31152 0.848513V1.70328V3.98829C4.31152 4.4455 4.68224 4.81634 5.13953 4.81634Z" fill="#841308"/>
<path d="M15.7607 4.79583H16.0616C16.5189 4.79583 16.8896 4.42503 16.8896 3.96779V1.48637V0.827961C16.8896 0.370802 16.5189 0 16.0616 0H15.7607C15.3033 0 14.9326 0.370802 14.9326 0.827961V1.48637V3.96774C14.9327 4.42503 15.3034 4.79583 15.7607 4.79583Z" fill="#841308"/>
<path d="M19.688 1.70312H17.5629V4.18449C17.5629 5.01224 16.8895 5.46879 16.0619 5.46879H15.7609C14.9332 5.46879 14.2598 4.79537 14.2598 3.96762V1.70312H6.9421V3.98814C6.9421 4.81588 6.26872 5.48931 5.44098 5.48931H5.14005C4.31235 5.48931 3.63897 4.81588 3.63897 3.98814V1.70312H1.34615C0.603893 1.70312 0 2.30702 0 3.04932V19.3158C0 20.0581 0.603893 20.662 1.34615 20.662H19.688C20.4303 20.662 21.0341 20.0581 21.0341 19.3158V3.04932C21.0342 2.30706 20.4303 1.70312 19.688 1.70312ZM19.688 19.3158H1.34619L1.34615 7.03176H19.6883L19.689 19.3157C19.6889 19.3157 19.6886 19.3158 19.688 19.3158Z" fill="#841308"/>
<path d="M11.2126 11.1519H13.6296C13.7255 11.1519 13.8031 11.0742 13.8031 10.9784V8.88541C13.8031 8.7896 13.7255 8.71191 13.6296 8.71191H11.2126C11.1167 8.71191 11.0391 8.7896 11.0391 8.88541V10.9784C11.0391 11.0742 11.1167 11.1519 11.2126 11.1519Z" fill="#841308"/>
<path d="M15.1559 11.1519H17.573C17.6688 11.1519 17.7465 11.0742 17.7465 10.9784V8.88541C17.7465 8.7896 17.6688 8.71191 17.573 8.71191H15.1559C15.0601 8.71191 14.9824 8.7896 14.9824 8.88541V10.9784C14.9824 11.0742 15.0601 11.1519 15.1559 11.1519Z" fill="#841308"/>
<path d="M3.32291 14.5787H5.73995C5.83577 14.5787 5.91345 14.501 5.91345 14.4052V12.3122C5.91345 12.2164 5.83577 12.1387 5.73995 12.1387H3.32291C3.2271 12.1387 3.14941 12.2164 3.14941 12.3122V14.4052C3.14941 14.501 3.2271 14.5787 3.32291 14.5787Z" fill="#841308"/>
<path d="M7.26724 14.5787H9.68429C9.7801 14.5787 9.85779 14.501 9.85779 14.4052V12.3122C9.85779 12.2164 9.7801 12.1387 9.68429 12.1387H7.26724C7.17143 12.1387 7.09375 12.2164 7.09375 12.3122V14.4052C7.09375 14.501 7.17143 14.5787 7.26724 14.5787Z" fill="#841308"/>
<path d="M11.2126 14.5787H13.6296C13.7254 14.5787 13.8031 14.501 13.8031 14.4052V12.3122C13.8031 12.2164 13.7254 12.1387 13.6296 12.1387H11.2126C11.1167 12.1387 11.0391 12.2164 11.0391 12.3122V14.4052C11.0391 14.501 11.1167 14.5787 11.2126 14.5787Z" fill="#841308"/>
<path d="M15.1569 14.5787H17.574C17.6698 14.5787 17.7475 14.501 17.7475 14.4052V12.3122C17.7475 12.2164 17.6698 12.1387 17.574 12.1387H15.1569C15.0611 12.1387 14.9834 12.2164 14.9834 12.3122V14.4052C14.9834 14.501 15.0611 14.5787 15.1569 14.5787Z" fill="#841308"/>
<path d="M5.73991 15.5654H3.32291C3.2271 15.5654 3.14941 15.6431 3.14941 15.7389V17.832C3.14941 17.9278 3.2271 18.0055 3.32291 18.0055H5.73995C5.83577 18.0055 5.91345 17.9278 5.91345 17.832V15.7389C5.91341 15.6431 5.83572 15.5654 5.73991 15.5654Z" fill="#841308"/>
<path d="M9.68429 15.5654H7.26724C7.17143 15.5654 7.09375 15.6431 7.09375 15.7389V17.832C7.09375 17.9278 7.17143 18.0055 7.26724 18.0055H9.68429C9.7801 18.0055 9.85778 17.9278 9.85778 17.832V15.7389C9.85778 15.6431 9.7801 15.5654 9.68429 15.5654Z" fill="#841308"/>
<path d="M13.6296 15.5654H11.2126C11.1167 15.5654 11.0391 15.6431 11.0391 15.7389V17.832C11.0391 17.9278 11.1167 18.0055 11.2126 18.0055H13.6296C13.7255 18.0055 13.8031 17.9278 13.8031 17.832V15.7389C13.8031 15.6431 13.7255 15.5654 13.6296 15.5654Z" fill="#841308"/>
<path d="M17.574 15.5654H15.1569C15.0611 15.5654 14.9834 15.6431 14.9834 15.7389V17.832C14.9834 17.9278 15.0611 18.0055 15.1569 18.0055H17.574C17.6698 18.0055 17.7475 17.9278 17.7475 17.832V15.7389C17.7475 15.6431 17.6698 15.5654 17.574 15.5654Z" fill="#841308"/>
</svg>
