<svg width="16" height="16" viewBox="0 0 16 16" fill="none" xmlns="http://www.w3.org/2000/svg">
<path d="M3.18193 0H2.42752C2.16492 0 1.73856 0.106353 1.37791 0.530912C1.01701 0.955755 0 1.9826 0 4.07099C0 6.15937 1.41077 8.17723 1.60739 8.46075C1.80427 8.74397 4.33062 13.1664 8.33189 14.8678C11.6573 16.2817 12.3342 16.0004 13.0557 15.9296C13.7776 15.8591 15.385 14.9031 15.713 13.912C16.0411 12.921 16.0411 12.0713 15.9427 11.8939C15.8442 11.717 15.5816 11.611 15.1881 11.3988C14.7943 11.1864 12.8649 10.1422 12.504 10.0003C12.1431 9.85897 11.8808 9.78817 11.6182 10.2133C11.3556 10.6376 10.5825 11.6192 10.3528 11.9024C10.1233 12.1859 9.89354 12.2215 9.49977 12.0091C9.10601 11.7961 7.85111 11.34 6.34729 9.89424C5.17677 8.769 4.36453 7.33409 4.13479 6.90924C3.90532 6.48469 4.11035 6.25492 4.30776 6.04307C4.48466 5.85311 4.7236 5.5932 4.92048 5.34552C5.1171 5.09755 5.17309 4.92067 5.30452 4.63744C5.43569 4.35421 5.36997 4.10625 5.27167 3.89411C5.17309 3.68169 4.41763 1.58278 4.0675 0.743333H4.06776C3.77284 0.0363988 3.4624 0.0125121 3.18193 0Z" fill="white"/>
</svg>
