<svg width="16" height="17" viewBox="0 0 16 17" fill="none" xmlns="http://www.w3.org/2000/svg">
<path d="M3.18193 0.503906H2.42752C2.16492 0.503906 1.73856 0.610259 1.37791 1.03482C1.01701 1.45966 0 2.48651 0 4.57489C0 6.66328 1.41077 8.68114 1.60739 8.96465C1.80427 9.24788 4.33062 13.6703 8.33189 15.3717C11.6573 16.7856 12.3342 16.5043 13.0557 16.4335C13.7776 16.363 15.385 15.407 15.713 14.416C16.0411 13.4249 16.0411 12.5752 15.9427 12.3978C15.8442 12.2209 15.5816 12.1149 15.1881 11.9027C14.7943 11.6903 12.8649 10.6461 12.504 10.5042C12.1431 10.3629 11.8808 10.2921 11.6182 10.7172C11.3556 11.1415 10.5825 12.1231 10.3528 12.4063C10.1233 12.6898 9.89354 12.7254 9.49977 12.513C9.10601 12.3 7.85111 11.8439 6.34729 10.3981C5.17677 9.27291 4.36453 7.83799 4.13479 7.41315C3.90532 6.98859 4.11035 6.75882 4.30776 6.54697C4.48466 6.35702 4.7236 6.0971 4.92048 5.84942C5.1171 5.60145 5.17309 5.42458 5.30452 5.14135C5.43569 4.85812 5.36997 4.61015 5.27167 4.39802C5.17309 4.1856 4.41763 2.08669 4.0675 1.24724H4.06776C3.77284 0.540305 3.4624 0.516418 3.18193 0.503906Z" fill="#841308"/>
</svg>
