<svg width="10" height="8" viewBox="0 0 10 8" fill="none" xmlns="http://www.w3.org/2000/svg">
<path d="M3.25777 8C3.21955 8 3.18198 7.99128 3.14881 7.9747C3.11564 7.95812 3.088 7.93426 3.06865 7.90548C2.24894 6.68652 0.0646287 4.09226 0.0426551 4.06619C0.0114457 4.02916 -0.00345517 3.98357 0.000676096 3.93774C0.00480736 3.89191 0.0276948 3.84892 0.065155 3.8166L0.7366 3.23748C0.773078 3.20601 0.821037 3.1867 0.872136 3.1829C0.923236 3.17911 0.974244 3.19106 1.01629 3.21669L3.21205 4.55499C4.67187 2.91808 6.02849 1.7884 6.92015 1.12277C7.9196 0.376573 8.55504 0.0412693 8.58159 0.027296C8.61568 0.00943685 8.65469 1.75853e-06 8.69444 2.56401e-09H9.78067C9.82513 -6.34761e-06 9.86854 0.0117829 9.90515 0.0338045C9.94175 0.0558261 9.96983 0.0870399 9.98565 0.123307C10.0015 0.159575 10.0043 0.199182 9.99373 0.236879C9.98317 0.274576 9.95973 0.30858 9.92652 0.334385C8.3162 1.58624 6.64199 3.57531 5.5211 5.02342C4.30262 6.59751 3.45674 7.89043 3.44834 7.90332C3.4293 7.93249 3.4018 7.95678 3.36861 7.97375C3.33541 7.99072 3.29769 7.99976 3.25922 7.99998L3.25777 8Z" fill="white"/>
</svg>
