<svg width="18" height="18" viewBox="0 0 18 18" fill="none" xmlns="http://www.w3.org/2000/svg">
<path d="M1.33023 17.5C1.16604 17.5 1.00552 17.4514 0.868986 17.3601C0.732451 17.2689 0.626034 17.1393 0.563195 16.9876C0.500356 16.8359 0.483917 16.669 0.515959 16.5079C0.548 16.3469 0.627082 16.199 0.743202 16.0829L16.083 0.743034C16.2387 0.587344 16.4499 0.499878 16.6701 0.499878C16.8903 0.499878 17.1014 0.587344 17.2571 0.743034C17.4128 0.898725 17.5003 1.10989 17.5003 1.33007C17.5003 1.55024 17.4128 1.76141 17.2571 1.9171L1.91726 17.2569C1.84025 17.3341 1.74874 17.3953 1.648 17.437C1.54726 17.4787 1.43927 17.5001 1.33023 17.5Z" fill="white"/>
<path d="M16.67 17.5C16.561 17.5001 16.453 17.4787 16.3523 17.437C16.2515 17.3953 16.16 17.3341 16.083 17.2569L0.743156 1.9171C0.587466 1.76141 0.5 1.55024 0.5 1.33007C0.5 1.10989 0.587466 0.898725 0.743156 0.743034C0.898847 0.587344 1.11001 0.499878 1.33019 0.499878C1.55037 0.499878 1.76153 0.587344 1.91722 0.743034L17.2571 16.0829C17.3732 16.199 17.4523 16.3469 17.4843 16.5079C17.5163 16.669 17.4999 16.8359 17.4371 16.9876C17.3742 17.1393 17.2678 17.2689 17.1313 17.3601C16.9947 17.4514 16.8342 17.5 16.67 17.5Z" fill="white"/>
</svg>
