<svg width="22" height="22" viewBox="0 0 22 22" fill="none" xmlns="http://www.w3.org/2000/svg">
<g clip-path="url(#clip0_1252_16181)">
<path d="M18.7764 3.22369C14.4786 -1.07407 7.52198 -1.07472 3.22361 3.22369C-1.07419 7.52141 -1.07488 14.4781 3.22361 18.7765C7.52137 23.0743 14.478 23.0749 18.7764 18.7765C23.0742 14.4788 23.0748 7.52205 18.7764 3.22369ZM11 20.191C5.9321 20.191 1.80906 16.0679 1.80906 11.0001C1.80906 5.93222 5.9321 1.80923 11 1.80923C16.0678 1.80923 20.1909 5.93226 20.1909 11.0001C20.1909 16.068 16.0679 20.191 11 20.191Z" fill="#841308"/>
<path d="M12.3764 5.50842H9.16462C8.66573 5.50842 8.26131 5.91285 8.26131 6.41173V10.0967H7.32934C6.83045 10.0967 6.42603 10.5011 6.42603 11C6.42603 11.4989 6.83045 11.9033 7.32934 11.9033H8.26131V12.8497H7.32934C6.83045 12.8497 6.42603 13.2541 6.42603 13.753C6.42603 14.2519 6.83045 14.6563 7.32934 14.6563H8.26131V15.5883C8.26131 16.0872 8.66573 16.4916 9.16462 16.4916C9.66351 16.4916 10.0679 16.0872 10.0679 15.5883V14.6563H11.9176C12.4165 14.6563 12.8209 14.2519 12.8209 13.753C12.8209 13.2541 12.4165 12.8497 11.9176 12.8497H10.0679V11.9033H12.3764C14.1395 11.9033 15.5739 10.469 15.5739 8.7059C15.5739 6.9428 14.1395 5.50842 12.3764 5.50842ZM12.3764 10.0967H10.0679V7.31501H12.3764C13.1433 7.31501 13.7672 7.9389 13.7672 8.70581C13.7672 9.47273 13.1433 10.0967 12.3764 10.0967Z" fill="#841308"/>
</g>
<defs>
<clipPath id="clip0_1252_16181">
<rect width="22" height="22" fill="white"/>
</clipPath>
</defs>
</svg>
