<svg width="15" height="16" viewBox="0 0 15 16" fill="none" xmlns="http://www.w3.org/2000/svg">
<path d="M14.1667 1.66675H0.833333C0.61232 1.66675 0.400358 1.75455 0.244078 1.91083C0.0877974 2.06711 0 2.27907 0 2.50008C0 2.7211 0.0877974 2.93306 0.244078 3.08934C0.400358 3.24562 0.61232 3.33341 0.833333 3.33341H14.1667C14.3877 3.33341 14.5996 3.24562 14.7559 3.08934C14.9122 2.93306 15 2.7211 15 2.50008C15 2.27907 14.9122 2.06711 14.7559 1.91083C14.5996 1.75455 14.3877 1.66675 14.1667 1.66675Z" fill="white"/>
<path d="M14.1667 7H0.833333C0.61232 7 0.400358 7.0878 0.244078 7.24408C0.0877974 7.40036 0 7.61232 0 7.83333C0 8.05435 0.0877974 8.26631 0.244078 8.42259C0.400358 8.57887 0.61232 8.66667 0.833333 8.66667H14.1667C14.3877 8.66667 14.5996 8.57887 14.7559 8.42259C14.9122 8.26631 15 8.05435 15 7.83333C15 7.61232 14.9122 7.40036 14.7559 7.24408C14.5996 7.0878 14.3877 7 14.1667 7Z" fill="white"/>
<path d="M14.1667 12.3333H0.833333C0.61232 12.3333 0.400358 12.421 0.244078 12.5773C0.0877974 12.7336 0 12.9456 0 13.1666C0 13.3876 0.0877974 13.5996 0.244078 13.7558C0.400358 13.9121 0.61232 13.9999 0.833333 13.9999H14.1667C14.3877 13.9999 14.5996 13.9121 14.7559 13.7558C14.9122 13.5996 15 13.3876 15 13.1666C15 12.9456 14.9122 12.7336 14.7559 12.5773C14.5996 12.421 14.3877 12.3333 14.1667 12.3333Z" fill="white"/>
<path d="M10.8334 5C12.2141 5 13.3334 3.88071 13.3334 2.5C13.3334 1.11929 12.2141 0 10.8334 0C9.45266 0 8.33337 1.11929 8.33337 2.5C8.33337 3.88071 9.45266 5 10.8334 5Z" fill="white"/>
<path d="M6.16663 10.3333C7.54734 10.3333 8.66663 9.21396 8.66663 7.83325C8.66663 6.45254 7.54734 5.33325 6.16663 5.33325C4.78591 5.33325 3.66663 6.45254 3.66663 7.83325C3.66663 9.21396 4.78591 10.3333 6.16663 10.3333Z" fill="white"/>
<path d="M10.8334 15.6667C12.2141 15.6667 13.3334 14.5475 13.3334 13.1667C13.3334 11.786 12.2141 10.6667 10.8334 10.6667C9.45266 10.6667 8.33337 11.786 8.33337 13.1667C8.33337 14.5475 9.45266 15.6667 10.8334 15.6667Z" fill="white"/>
</svg>
