<svg width="30" height="30" viewBox="0 0 30 30" fill="none" xmlns="http://www.w3.org/2000/svg">
<path d="M15 30C23.28 30 30 23.28 30 15C30 6.72 23.28 0 15 0C6.72 0 0 6.72 0 15C0 23.28 6.72 30 15 30ZM20.3538 13.9287H22.5012V11.7825H24.6488V13.93H26.7775V16.0775H24.6488V18.225H22.5012V16.0775H20.3538V13.9287ZM15.745 9.4525L13.7125 11.425C11.1125 8.88375 6.05375 10.735 6.05375 14.9937C6.05375 20.77 14.2525 21.165 14.9637 16.4937H10.7238V13.9175H17.795C18.5975 18.1125 15.8888 22.5 10.7238 22.5V22.5012C6.5625 22.5012 3.2225 19.1437 3.2225 15C3.22375 8.3275 11.1388 5.17375 15.745 9.4525Z" fill="#F44336"/>
</svg>
