<svg width="19" height="13" viewBox="0 0 19 13" fill="none" xmlns="http://www.w3.org/2000/svg">
<path d="M2.54735 11.2581L2.37882 11.9445C2.31602 12.2002 2.37137 12.4656 2.53068 12.6732C2.68998 12.8809 2.92983 13.0001 3.18847 13.0001C3.57201 13.0001 3.90517 12.7354 3.99812 12.3566L4.266 11.2667H2.76697C2.69317 11.2667 2.61973 11.2638 2.54735 11.2581Z" fill="#841308"/>
<path d="M16.0435 11.2581C15.9711 11.2638 15.8977 11.2667 15.8239 11.2667H14.3252L14.5927 12.3566C14.6857 12.7354 15.0188 13.0001 15.4024 13.0001C15.661 13.0001 15.9009 12.8809 16.0602 12.6732C16.2195 12.4656 16.2748 12.2002 16.212 11.9445L16.0435 11.2581Z" fill="#841308"/>
<path d="M1.9517 3.18499C2.85466 3.26119 3.6157 3.94152 3.79594 4.85801L4.2327 7.08101C4.28166 7.33017 4.49844 7.51109 4.74822 7.51109H13.8438C14.0936 7.51109 14.3104 7.33017 14.3594 7.08101L14.7961 4.85801C14.9636 4.00616 15.6331 3.35832 16.4516 3.20991L16.5229 2.80402C16.645 2.10744 16.4591 1.39677 16.0127 0.854025C15.5664 0.311277 14.9114 0 14.216 0H4.17983C3.46882 0 2.80464 0.322832 2.35759 0.885442C1.91054 1.44841 1.73953 2.17713 1.88855 2.88455L1.9517 3.18499Z" fill="#841308"/>
<path d="M17.8951 4.23468C17.6151 3.93015 17.2196 3.75548 16.8098 3.75548C16.6474 3.75548 16.4901 3.78286 16.3421 3.83309L16.3422 3.83276C15.844 3.9988 15.452 4.44687 15.3526 4.97138L14.9158 7.19419C14.8139 7.71253 14.363 8.08877 13.8436 8.08877H4.74822C4.22883 8.08877 3.77791 7.71256 3.67605 7.19419L3.23926 4.97138C3.1297 4.38591 2.65256 3.90036 2.07825 3.78618L2.07829 3.78632C1.58097 3.67893 1.04235 3.85508 0.696774 4.23468C0.416838 4.53924 0.271903 4.95253 0.299151 5.36864L0.496916 8.38762C0.502131 9.63031 1.47612 10.6441 2.68829 10.6867L2.68815 10.6874C2.71441 10.6884 2.74102 10.6888 2.76763 10.6888H4.40857H14.1836H15.8242C15.8508 10.6888 15.8774 10.6884 15.9037 10.6874L15.9035 10.6867C17.1157 10.6441 18.0897 9.63031 18.0949 8.38762L18.2926 5.36864C18.3199 4.95253 18.175 4.5392 17.8951 4.23468Z" fill="#841308"/>
</svg>
