<svg width="30" height="30" viewBox="0 0 30 30" fill="none" xmlns="http://www.w3.org/2000/svg">
<g clip-path="url(#clip0_1219_5165)">
<path d="M15 30C23.2843 30 30 23.2843 30 15C30 6.71573 23.2843 0 15 0C6.71573 0 0 6.71573 0 15C0 23.2843 6.71573 30 15 30Z" fill="#F96600"/>
<path d="M14.0782 18.8314C12.6243 18.6797 11.3135 18.32 10.1919 17.4439C10.0521 17.3348 9.90893 17.2291 9.78109 17.103C9.29018 16.6308 9.24075 16.0905 9.62938 15.5348C9.96177 15.0575 10.5192 14.9297 11.1004 15.2041C11.212 15.2606 11.3192 15.3256 11.4209 15.3984C12.4602 16.1048 13.6854 16.4879 14.942 16.4994C16.1987 16.511 17.4306 16.1504 18.4828 15.4632C18.6838 15.3003 18.9158 15.1797 19.1646 15.1087C19.396 15.0402 19.6437 15.0516 19.8678 15.141C20.0919 15.2303 20.2795 15.3924 20.4004 15.6013C20.7072 16.1024 20.7038 16.5899 20.3254 16.9785C19.7454 17.5652 19.0444 18.0183 18.2714 18.3064C17.5188 18.5768 16.7356 18.7525 15.9396 18.8297C16.0589 18.9609 16.1101 19.024 16.1919 19.099C17.2709 20.1848 18.355 21.2655 19.4305 22.353C19.6019 22.5087 19.7181 22.7159 19.7617 22.9433C19.8054 23.1707 19.7741 23.4062 19.6726 23.6143C19.5692 23.8425 19.4009 24.0351 19.1887 24.1682C18.9765 24.3013 18.7298 24.3689 18.4794 24.3626C18.1865 24.3338 17.9154 24.1949 17.7209 23.974C16.9061 23.1541 16.076 22.3496 15.2782 21.5143C15.0464 21.2723 14.9373 21.3183 14.7294 21.528C13.9095 22.3802 13.076 23.2035 12.239 24.0285C12.0836 24.2008 11.8754 24.3165 11.6471 24.3575C11.4188 24.3986 11.1833 24.3626 10.9777 24.2552C10.7549 24.1512 10.5669 23.985 10.4362 23.7767C10.3056 23.5683 10.2379 23.3267 10.2413 23.0808C10.2659 22.7769 10.4077 22.4945 10.6368 22.2933C11.7072 21.2263 12.7743 20.1587 13.8379 19.0905C13.9095 19.0172 13.9777 18.9405 14.0782 18.8314Z" fill="white"/>
<path d="M14.9629 15.1158C14.0229 15.1104 13.1058 14.8258 12.3277 14.2984C11.5496 13.7709 10.9458 13.0242 10.5927 12.1531C10.2396 11.2819 10.1531 10.3255 10.3443 9.4052C10.5355 8.48486 10.9958 7.64203 11.6666 6.98361C12.3375 6.32519 13.1888 5.88085 14.1126 5.70693C15.0363 5.53302 15.9909 5.63736 16.8553 6.00674C17.7197 6.37611 18.4549 6.99387 18.9677 7.78168C19.4805 8.56948 19.7478 9.49182 19.7356 10.4317C19.7186 11.6841 19.2074 12.879 18.3135 13.7563C17.4196 14.6336 16.2154 15.1222 14.9629 15.1158ZM17.3203 10.3653C17.3189 9.90581 17.1813 9.45709 16.9248 9.07592C16.6682 8.69474 16.3044 8.39826 15.8792 8.22399C15.4541 8.04973 14.9868 8.00553 14.5366 8.09699C14.0863 8.18845 13.6733 8.41145 13.3499 8.73777C13.0264 9.06408 12.8071 9.47903 12.7196 9.93008C12.6321 10.3811 12.6804 10.848 12.8584 11.2716C13.0364 11.6951 13.3361 12.0564 13.7195 12.3095C14.103 12.5627 14.5529 12.6964 15.0123 12.6937C15.317 12.693 15.6184 12.6322 15.8995 12.5147C16.1805 12.3972 16.4356 12.2253 16.6501 12.009C16.8645 11.7926 17.0341 11.536 17.1491 11.254C17.2641 10.9719 17.3223 10.6699 17.3203 10.3653Z" fill="white"/>
</g>
<defs>
<clipPath id="clip0_1219_5165">
<rect width="30" height="30" fill="white"/>
</clipPath>
</defs>
</svg>
