<svg width="24" height="24" viewBox="0 0 24 24" fill="none" xmlns="http://www.w3.org/2000/svg">
<g clip-path="url(#clip0_1959_1067)">
<path d="M8.81182 10.9648C9.36588 10.9648 9.81504 10.5156 9.81504 9.96157C9.81504 9.4075 9.36588 8.95834 8.81182 8.95834C8.25775 8.95834 7.80859 9.4075 7.80859 9.96157C7.80859 10.5156 8.25775 10.9648 8.81182 10.9648Z" fill="#841308"/>
<path d="M15.1849 15.0367C15.7389 15.0367 16.1881 14.5875 16.1881 14.0335C16.1881 13.4794 15.7389 13.0302 15.1849 13.0302C14.6308 13.0302 14.1816 13.4794 14.1816 14.0335C14.1816 14.5875 14.6308 15.0367 15.1849 15.0367Z" fill="#841308"/>
<path d="M23.4562 13.3253L23.0922 12.8286C22.6988 12.2877 22.689 11.5549 23.0775 11.0041L23.4316 10.5025C23.9725 9.73535 23.7217 8.66819 22.8906 8.22068L22.3497 7.93053C21.7595 7.61579 21.435 6.95681 21.5481 6.29291L21.6513 5.68803C21.8087 4.76349 21.1153 3.9078 20.176 3.86846L19.5613 3.84387C18.8925 3.81436 18.3122 3.36193 18.1253 2.7177L17.9532 2.12757C17.6925 1.2227 16.6992 0.755516 15.8336 1.12927L15.2681 1.37024C14.6534 1.63579 13.9354 1.47843 13.4879 0.976815L13.0797 0.519463C12.4551 -0.178859 11.3585 -0.173941 10.7388 0.539134L10.3356 1.0014C9.89297 1.50793 9.1799 1.67514 8.56026 1.41941L7.9898 1.18336C7.11936 0.824364 6.13581 1.31122 5.885 2.21609L5.72271 2.81114C5.54568 3.46028 4.97521 3.92255 4.3064 3.95698L3.69168 3.9914C2.75239 4.0455 2.07374 4.91102 2.24586 5.83556L2.35897 6.44045C2.48191 7.09943 2.16717 7.76332 1.58196 8.0879L1.04592 8.38788C0.224658 8.84523 -0.0113943 9.9173 0.544313 10.6746L0.908227 11.1713C1.30165 11.7123 1.31148 12.445 0.92298 12.9958L0.568901 13.4974C0.0279478 14.2646 0.278754 15.3318 1.10986 15.7793L1.65081 16.0694C2.24094 16.3842 2.56551 17.0431 2.4524 17.707L2.34913 18.3119C2.19176 19.2365 2.88517 20.0921 3.82446 20.1315L4.43918 20.1561C5.10799 20.1856 5.68829 20.638 5.87516 21.2822L6.04729 21.8724C6.30793 22.7772 7.30132 23.2444 8.16684 22.8707L8.73238 22.6297C9.3471 22.3642 10.0651 22.5215 10.5126 23.0231L10.9208 23.4805C11.5503 24.1788 12.6469 24.1739 13.2616 23.4608L13.6649 22.9985C14.1075 22.492 14.8206 22.3248 15.4402 22.5805L16.0107 22.8166C16.8811 23.1756 17.8647 22.6887 18.1155 21.7839L18.2778 21.1888C18.4548 20.5397 19.0253 20.0774 19.6941 20.043L20.3088 20.0085C21.2481 19.9545 21.9267 19.0889 21.7546 18.1644L21.6415 17.5595C21.5186 16.9005 21.8333 16.2366 22.4185 15.9121L22.9545 15.6121C23.7758 15.1596 24.0119 14.0876 23.4562 13.3253ZM6.38661 9.96156C6.38661 8.62393 7.46852 7.54203 8.80615 7.54203C10.1438 7.54203 11.2257 8.62393 11.2257 9.96156C11.2257 11.2992 10.1438 12.3811 8.80615 12.3811C7.46852 12.3811 6.38661 11.2943 6.38661 9.96156ZM9.27334 16.2022C9.06679 16.453 8.69304 16.4874 8.44224 16.2809C8.19143 16.0743 8.15701 15.7006 8.36355 15.4498L14.7124 7.80267C14.9189 7.55186 15.2927 7.51744 15.5435 7.72398C15.7943 7.93053 15.8287 8.30428 15.6222 8.55508L9.27334 16.2022ZM15.1845 16.453C13.8469 16.453 12.7649 15.3711 12.7649 14.0335C12.7649 12.6958 13.8469 11.6139 15.1845 11.6139C16.5221 11.6139 17.604 12.6958 17.604 14.0335C17.604 15.3711 16.5221 16.453 15.1845 16.453Z" fill="url(#paint0_linear_1959_1067)"/>
</g>
<defs>
<linearGradient id="paint0_linear_1959_1067" x1="6.39151" y1="-1.80402e-05" x2="23.405" y2="3.1602" gradientUnits="userSpaceOnUse">
<stop stop-color="#841308"/>
<stop offset="1" stop-color="#721007"/>
</linearGradient>
<clipPath id="clip0_1959_1067">
<rect width="24" height="24" fill="white"/>
</clipPath>
</defs>
</svg>
