<svg width="30" height="30" viewBox="0 0 30 30" fill="none" xmlns="http://www.w3.org/2000/svg">
<g clip-path="url(#clip0_1219_5172)">
<path d="M15 30C23.2843 30 30 23.2843 30 15C30 6.71573 23.2843 0 15 0C6.71573 0 0 6.71573 0 15C0 23.2843 6.71573 30 15 30Z" fill="#03A9F4"/>
<path d="M24.716 8.97402C23.9852 9.29322 23.2121 9.50527 22.4206 9.60363C23.2549 9.10889 23.8786 8.32511 24.1733 7.401C23.3924 7.86449 22.538 8.19091 21.647 8.36613C21.101 7.78221 20.3919 7.37611 19.612 7.20065C18.8321 7.02518 18.0174 7.08846 17.2739 7.38227C16.5304 7.67608 15.8926 8.18682 15.4433 8.84805C14.9941 9.50928 14.7542 10.2904 14.7549 11.0898C14.752 11.3949 14.7832 11.6994 14.8476 11.9977C13.2627 11.9199 11.712 11.5085 10.2969 10.7906C8.88176 10.0727 7.634 9.06425 6.63512 7.83126C6.12168 8.70838 5.96261 9.74848 6.19042 10.739C6.41824 11.7294 7.01573 12.5955 7.86077 13.1602C7.23003 13.1432 6.61264 12.9746 6.06077 12.6688V12.7122C6.06255 13.6316 6.38078 14.5223 6.96198 15.2347C7.54318 15.9471 8.3519 16.4377 9.25222 16.624C8.91151 16.7135 8.5604 16.7573 8.20814 16.7543C7.95449 16.759 7.70108 16.7365 7.45222 16.6872C7.71016 17.4779 8.20674 18.1692 8.87367 18.6662C9.5406 19.1631 10.3451 19.4412 11.1766 19.4622C9.7676 20.5635 8.03066 21.1617 6.24235 21.1615C5.92372 21.1642 5.60525 21.1458 5.28906 21.1063C7.11249 22.2819 9.23793 22.9031 11.4075 22.8944C18.7397 22.8944 22.7483 16.8214 22.7483 11.5576C22.7483 11.3819 22.7483 11.2122 22.7345 11.0424C23.5151 10.479 24.1866 9.77812 24.716 8.97402Z" fill="white"/>
</g>
<defs>
<clipPath id="clip0_1219_5172">
<rect width="30" height="30" fill="white"/>
</clipPath>
</defs>
</svg>
