<svg width="26" height="26" viewBox="0 0 26 26" fill="none" xmlns="http://www.w3.org/2000/svg">
<circle cx="13.241" cy="12.931" r="12.7586" fill="#665CAC"/>
<path d="M18.4737 14.2791C18.8271 11.3036 18.3038 9.42517 17.3599 8.57554L17.3604 8.57505C15.8369 7.12411 10.6917 6.90936 8.86907 8.64021C8.05055 9.48688 7.76224 10.7295 7.73064 12.2678C7.69905 13.8066 7.66153 16.6892 10.3477 17.4712H10.3501L10.3477 18.6654C10.3477 18.6654 10.3294 19.1492 10.6384 19.2465C10.9919 19.361 11.1519 19.1364 12.2513 17.8232C14.0898 17.9827 15.5017 17.6173 15.6621 17.564C16.0334 17.4396 18.134 17.1617 18.4737 14.2791ZM12.4325 16.983C12.4325 16.983 11.2689 18.4339 10.907 18.8106C10.7885 18.933 10.6587 18.9216 10.6606 18.6788C10.6606 18.5193 10.6695 16.6961 10.6695 16.6961C8.39218 16.0435 8.52646 13.5889 8.55114 12.3048C8.57583 11.0203 8.81082 9.96822 9.50395 9.25978C11.103 7.76047 15.6138 8.09568 16.7631 9.17586C18.1681 10.4214 17.668 13.9404 17.6709 14.0604C17.3821 16.4666 15.6799 16.6191 15.3669 16.7233C15.2331 16.7677 13.9915 17.0871 12.4325 16.983Z" fill="white"/>
<path d="M13.0761 9.54167C12.8861 9.54167 12.8861 9.83788 13.0761 9.84035C14.5508 9.8517 15.7652 10.8796 15.7786 12.7649C15.7786 12.9639 16.0698 12.9614 16.0674 12.7625C16.0516 10.731 14.725 9.55303 13.0761 9.54167Z" fill="white"/>
<path d="M15.0159 12.4524C15.0115 12.6489 15.3023 12.6583 15.3047 12.4593C15.3289 11.3392 14.6383 10.4165 13.3404 10.3192C13.1503 10.3054 13.1306 10.6041 13.3201 10.6179C14.4457 10.7033 15.0386 11.4715 15.0159 12.4524Z" fill="white"/>
<path d="M14.7053 13.7266C14.4614 13.5854 14.2131 13.6733 14.1104 13.812L13.8957 14.09C13.7866 14.2312 13.5827 14.2124 13.5827 14.2124C12.0947 13.8189 11.6968 12.2619 11.6968 12.2619C11.6968 12.2619 11.6786 12.0511 11.8148 11.938L12.0834 11.7159C12.2177 11.6092 12.3026 11.3525 12.1658 11.1002C11.8005 10.4402 11.5551 10.2126 11.4302 10.0378C11.2989 9.87343 11.1014 9.83641 10.8961 9.94749H10.8916C10.4646 10.1973 9.99707 10.6648 10.1467 11.1461C10.4019 11.6537 10.8709 13.2715 12.3658 14.4938C13.0683 15.0719 14.18 15.6643 14.652 15.8011L14.6564 15.808C15.1215 15.963 15.5737 15.4772 15.8151 15.0374V15.0339C15.9223 14.8211 15.8867 14.6197 15.7302 14.4879C15.4528 14.2173 15.0341 13.9187 14.7053 13.7266Z" fill="white"/>
<path d="M13.5439 11.4211C14.0183 11.4488 14.2484 11.6966 14.273 12.2056C14.2819 12.4045 14.5707 12.3907 14.5618 12.1918C14.5302 11.5273 14.1837 11.157 13.5597 11.1224C13.3696 11.1111 13.3518 11.4098 13.5439 11.4211Z" fill="white"/>
</svg>
