<svg width="30" height="30" viewBox="0 0 30 30" fill="none" xmlns="http://www.w3.org/2000/svg">
<g clip-path="url(#clip0_1219_5178)">
<path d="M15 30C23.2843 30 30 23.2843 30 15C30 6.71573 23.2843 0 15 0C6.71573 0 0 6.71573 0 15C0 23.2843 6.71573 30 15 30Z" fill="#4169E1"/>
<path d="M23.6455 20.8706C23.2091 20.932 21.075 20.8706 20.9643 20.8706C20.4126 20.8777 19.8804 20.667 19.483 20.2842C19.033 19.8513 18.6307 19.374 18.191 18.9206C18.0609 18.783 17.9201 18.6559 17.7699 18.5405C17.4188 18.2695 17.0711 18.3308 16.9057 18.745C16.7765 19.1926 16.6864 19.6506 16.6364 20.1138C16.6074 20.5331 16.3415 20.7956 15.8711 20.8246C15.5796 20.8399 15.2881 20.845 15 20.8382C13.9502 20.8315 12.9169 20.5762 11.9847 20.0933C10.9761 19.5313 10.0973 18.7629 9.40573 17.8382C8.2688 16.3859 7.36027 14.7905 6.54891 13.1456C6.50629 13.0638 5.67448 11.2945 5.65402 11.2109C5.57902 10.9314 5.65402 10.6638 5.88414 10.5717C6.03073 10.5155 8.77164 10.5717 8.81766 10.5717C9.02143 10.57 9.22047 10.6331 9.38595 10.752C9.55144 10.8709 9.67478 11.0394 9.73811 11.2331C10.2448 12.5305 10.9385 13.7467 11.7972 14.8433C11.9174 14.99 12.058 15.1186 12.2148 15.2252C12.4381 15.3769 12.6495 15.324 12.7415 15.0666C12.8506 14.7095 12.9147 14.3402 12.9324 13.9672C12.9478 13.2274 12.9324 12.7399 12.8915 12.0019C12.8643 11.528 12.6972 11.1121 11.9983 10.9791C11.7836 10.9416 11.7648 10.7644 11.9029 10.5871C12.191 10.2189 12.5847 10.1609 13.0262 10.1388C13.6841 10.1013 14.3421 10.1269 15 10.1388H15.1432C15.4296 10.1377 15.7153 10.1669 15.9955 10.2257C16.1612 10.2592 16.3116 10.3454 16.4243 10.4713C16.537 10.5972 16.6061 10.7562 16.6211 10.9246C16.6547 11.1112 16.669 11.3009 16.6637 11.4905C16.6466 12.2984 16.6074 13.1047 16.5989 13.9127C16.5911 14.2326 16.6202 14.5523 16.6858 14.8655C16.7796 15.295 17.0745 15.4024 17.3677 15.0922C17.7473 14.6912 18.0955 14.2615 18.4091 13.807C18.9638 12.9786 19.4213 12.0893 19.7728 11.1564C19.9637 10.6774 20.1137 10.5717 20.625 10.5717H23.533C23.7059 10.5687 23.8783 10.5917 24.0444 10.6399C24.1031 10.6554 24.1581 10.6828 24.2058 10.7205C24.2535 10.7581 24.2929 10.8052 24.3215 10.8588C24.3502 10.9125 24.3674 10.9714 24.3723 11.032C24.3771 11.0926 24.3693 11.1535 24.3495 11.2109C24.2063 11.8484 23.862 12.3922 23.4972 12.9155C22.9057 13.7541 22.2819 14.5706 21.6768 15.3956C21.6002 15.505 21.5302 15.6189 21.4671 15.7365C21.2387 16.1473 21.2557 16.3774 21.5864 16.72C22.1148 17.2621 22.679 17.7717 23.1887 18.3308C23.5629 18.7373 23.9006 19.1759 24.1978 19.6416C24.5711 20.2195 24.341 20.7717 23.6455 20.8706Z" fill="white"/>
</g>
<defs>
<clipPath id="clip0_1219_5178">
<rect width="30" height="30" fill="white"/>
</clipPath>
</defs>
</svg>
