<svg width="26" height="26" viewBox="0 0 26 26" fill="none" xmlns="http://www.w3.org/2000/svg">
<circle cx="12.827" cy="12.7586" r="12.7586" fill="#43CE36"/>
<g clip-path="url(#clip0_1227_9774)">
<path d="M16.8484 8.82178C15.8416 7.81875 14.5023 7.26601 13.0769 7.26544C11.6546 7.26544 10.3132 7.81769 9.29976 8.82047C8.28455 9.82497 7.72494 11.1599 7.72363 12.5744V12.5761V12.577C7.7238 13.4332 7.94873 14.2969 8.37572 15.0853L7.73827 17.9827L10.669 17.316C11.4113 17.6901 12.2395 17.8873 13.0748 17.8877H13.0769C14.4989 17.8877 15.8404 17.3353 16.854 16.3325C17.8701 15.3272 18.4299 13.994 18.4306 12.5785C18.431 11.173 17.8692 9.83887 16.8484 8.82178ZM13.0769 17.0512H13.075C12.3249 17.0509 11.5818 16.8626 10.9259 16.5065L10.7873 16.4313L8.83851 16.8745L9.26182 14.9507L9.18021 14.81C8.77449 14.1103 8.5601 13.338 8.5601 12.5761C8.56165 10.1103 10.5877 8.10191 13.0767 8.10191C14.2791 8.1024 15.409 8.56855 16.258 9.41434C17.1199 10.2732 17.5944 11.3968 17.594 12.5783C17.593 15.0447 15.5666 17.0512 13.0769 17.0512Z" fill="white"/>
<path d="M11.6206 10.2349H11.386C11.3043 10.2349 11.1717 10.2655 11.0595 10.3876C10.9472 10.5098 10.6309 10.805 10.6309 11.4055C10.6309 12.006 11.0697 12.5862 11.1309 12.6677C11.1921 12.7492 11.978 14.0208 13.2226 14.51C14.257 14.9165 14.4676 14.8357 14.692 14.8153C14.9165 14.795 15.4165 14.5201 15.5186 14.2352C15.6206 13.9502 15.6206 13.7059 15.5901 13.6549C15.5594 13.604 15.4777 13.5735 15.3553 13.5125C15.2328 13.4515 14.6327 13.1512 14.5204 13.1104C14.4081 13.0698 14.3265 13.0494 14.2448 13.1716C14.1632 13.2936 13.9227 13.5759 13.8512 13.6573C13.7798 13.7389 13.7084 13.7491 13.5859 13.688C13.4634 13.6268 13.073 13.4956 12.6053 13.0799C12.2412 12.7564 11.9885 12.3438 11.917 12.2216C11.8457 12.0995 11.9094 12.0335 11.9708 11.9726C12.0259 11.9179 12.1002 11.8432 12.1614 11.772C12.2226 11.7007 12.24 11.6498 12.2809 11.5684C12.3217 11.4869 12.3013 11.4156 12.2707 11.3546C12.24 11.2936 12.005 10.69 11.8961 10.4487H11.8962C11.8044 10.2454 11.7079 10.2385 11.6206 10.2349Z" fill="white"/>
</g>
<defs>
<clipPath id="clip0_1227_9774">
<rect width="10.7172" height="10.7172" fill="white" transform="translate(7.72363 7.26544)"/>
</clipPath>
</defs>
</svg>
